HIERARCHY
ROOT hip
{
	OFFSET 0.000000 0.000000 0.000000 
	CHANNELS 6 Xposition Yposition Zposition Xrotation Zrotation Yrotation
	JOINT abdomen
	{
		OFFSET 0.000000 3.402643 0.000000 
		CHANNELS 3 Xrotation Zrotation Yrotation
		JOINT chest
		{
			OFFSET 0.000000 8.438565 -0.680529 
			CHANNELS 3 Xrotation Zrotation Yrotation
			JOINT neck
			{
				OFFSET 0.000000 10.207942 -0.272212 
				CHANNELS 3 Xrotation Zrotation Yrotation
				JOINT head
				{
					OFFSET 0.000000 3.130431 0.000000 
					CHANNELS 3 Xrotation Zrotation Yrotation
					End Site
					{
						OFFSET 0.000000 3.130435 0.000000 
					}
				}
			}
			JOINT lCollar
			{
				OFFSET 3.470700 6.669187 -0.816635 
				CHANNELS 3 Yrotation Zrotation Xrotation
				JOINT lShldr
				{
					OFFSET 3.198488 0.000000 0.000000 
					CHANNELS 3 Zrotation Yrotation Xrotation
					JOINT lForeArm
					{
						OFFSET 10.139888 0.000000 0.000000 
						CHANNELS 3 Yrotation Zrotation Xrotation
						JOINT lHand
						{
							OFFSET 8.370511 0.000000 0.000000 
							CHANNELS 3 Zrotation Yrotation Xrotation
							End Site
							{
								OFFSET 4.083176 0.000000 0.000000 
							}
						}
					}
				}
			}
			JOINT rCollar
			{
				OFFSET -3.470700 6.669187 -0.816635 
				CHANNELS 3 Yrotation Zrotation Xrotation
				JOINT rShldr
				{
					OFFSET -3.198488 0.000000 0.000000 
					CHANNELS 3 Zrotation Yrotation Xrotation
					JOINT rForeArm
					{
						OFFSET -10.139888 0.000000 0.000000 
						CHANNELS 3 Yrotation Zrotation Xrotation
						JOINT rHand
						{
							OFFSET -8.370511 0.000000 0.000000 
							CHANNELS 3 Zrotation Yrotation Xrotation
							End Site
							{
								OFFSET -4.083176 0.000000 0.000000 
							}
						}
					}
				}
			}
		}
	}
	JOINT lThigh
	{
		OFFSET 5.308129 -1.633274 1.361059 
		CHANNELS 3 Xrotation Zrotation Yrotation
		JOINT lShin
		{
			OFFSET -2.041588 -20.007561 0.000000 
			CHANNELS 3 Xrotation Zrotation Yrotation
			JOINT lFoot
			{
				OFFSET 0.000000 -19.190928 -1.224953 
				CHANNELS 3 Xrotation Yrotation Zrotation
				End Site
				{
					OFFSET 0.000000 -2.449906 4.627600 
				}
			}
		}
	}
	JOINT rThigh
	{
		OFFSET -5.308129 -1.633274 1.361059 
		CHANNELS 3 Xrotation Zrotation Yrotation
		JOINT rShin
		{
			OFFSET 2.041588 -20.007561 0.000000 
			CHANNELS 3 Xrotation Zrotation Yrotation
			JOINT rFoot
			{
				OFFSET 0.000000 -19.190928 -1.224953 
				CHANNELS 3 Xrotation Yrotation Zrotation
				End Site
				{
					OFFSET 0.000000 -2.449906 4.627600 
				}
			}
		}
	}
}
MOTION
Frames: 19
Frame Time: 0.033333
-1.834660 44.382046 2.911551 -4.861681 -0.331547 3.095708 0.000000 0.000000 0.000000 12.101049 3.935368 -0.547596 -6.858047 -17.517748 29.489195 4.217624 3.007784 19.148556 -3.521967 9.154817 6.304141 -93.309105 -5.127728 -31.981295 -37.930882 14.110890 36.385445 3.882089 -2.581786 -8.072582 3.089181 -14.089146 8.026228 84.814911 11.377740 -34.875919 20.708712 -16.273186 58.540112 -7.835654 -12.128277 -8.841036 -15.916352 24.662537 16.003693 58.091942 -0.560318 -28.886068 -22.641031 -3.577771 14.380470 -17.840239 -22.408947 -11.862567 53.455685 -3.768575 33.617924 -24.682768 4.360264 -16.322161 
-1.894000 44.347301 2.908105 -5.231249 -0.126779 2.998039 0.000000 0.000000 0.000000 12.382709 3.710886 -0.303364 -6.818559 -17.396158 28.990417 4.112484 2.820315 18.774012 -3.521967 9.154817 6.304141 -92.871010 -5.441039 -31.461979 -36.746986 14.528461 36.026367 3.943092 -2.810626 -8.070200 3.089181 -14.089146 8.026228 85.189804 11.521992 -33.821308 20.781767 -16.364861 58.854156 -8.828648 -13.468143 -8.804299 -15.514819 24.639814 16.196493 58.125328 -0.584568 -29.550892 -22.255737 -3.489711 14.281586 -17.683634 -22.447233 -11.635289 53.749138 -3.954492 33.432846 -24.930086 4.408790 -16.318108 
-1.893514 44.335552 2.844498 -5.092515 -0.243716 3.378917 0.000000 0.000000 0.000000 12.225676 4.111217 -0.420942 -6.999672 -17.666052 29.275158 3.926120 3.069244 18.817572 -3.521967 9.154817 6.304141 -93.069992 -6.039564 -31.299387 -35.610126 15.279078 36.220127 3.730326 -2.702886 -8.051714 3.089181 -14.089146 8.026228 85.215179 11.692455 -33.092026 20.849991 -16.469603 58.716015 -10.244351 -14.934356 -8.752358 -16.179245 24.660976 15.755271 58.463509 -0.395672 -29.497992 -21.858297 -3.433408 14.128585 -17.711329 -22.444036 -11.895630 53.736092 -3.786046 33.348080 -24.890999 4.418243 -16.322411 
-1.913657 44.308720 2.813995 -5.130921 -0.233972 3.359387 0.000000 0.000000 0.000000 12.183315 4.208918 -0.322830 -7.272061 -17.930206 30.208908 3.527511 3.037778 19.521135 -3.521967 9.154817 6.304141 -93.092674 -5.783321 -31.341204 -35.759789 15.131392 35.981888 3.924292 -2.743772 -8.074797 3.089181 -14.089146 8.026228 85.172470 11.778902 -32.807030 20.859310 -16.497656 58.257648 -10.316429 -14.717043 -8.756445 -15.947262 24.677567 15.900700 58.175625 -0.466647 -29.377003 -22.805346 -3.596665 14.495442 -17.839123 -22.426325 -11.831150 53.930141 -3.824118 33.319061 -24.918945 4.428176 -16.338785 
-1.918273 44.342300 2.863182 -5.557889 0.156018 3.125015 0.000000 0.000000 0.000000 12.574783 3.916014 -0.048714 -7.080966 -18.169796 31.270132 2.620040 2.826357 20.524475 -3.521967 9.154817 6.304141 -93.145004 -5.809539 -31.521521 -35.497040 15.389106 36.081142 3.556980 -2.737756 -8.034652 3.089181 -14.089146 8.026228 85.208656 11.672002 -32.631557 20.898630 -16.541004 58.171070 -9.948631 -14.401401 -8.770242 -15.018888 24.392410 16.293091 57.767841 -0.631258 -29.405949 -22.958778 -3.657048 14.551544 -17.437475 -22.677694 -11.726245 53.893101 -4.001427 33.427773 -24.945871 4.411309 -16.350426 
-1.904764 44.397472 2.881356 -5.708016 0.438775 3.183725 0.000000 0.000000 0.000000 12.609352 3.769531 0.029875 -6.875447 -18.555094 32.261536 1.824422 3.103017 21.302376 -3.521967 9.154817 6.304141 -93.351624 -5.771759 -32.009338 -35.607643 15.352269 36.381969 3.052431 -2.969551 -7.949086 3.089181 -14.089146 8.026228 85.137726 11.475434 -32.672096 20.931055 -16.580711 58.144451 -9.675993 -13.986424 -8.789828 -14.948755 24.054840 16.177069 57.847385 -0.601066 -29.710886 -21.761810 -3.402381 14.100618 -17.154942 -22.990913 -11.827443 53.709087 -4.061211 33.516495 -24.866705 4.389895 -16.351158 
-1.922209 44.390617 2.863873 -5.720660 0.555760 3.222883 0.000000 0.000000 0.000000 12.467304 3.730463 0.098085 -6.907163 -18.866854 32.907127 1.401517 3.531194 21.664589 -3.521967 9.154817 6.304141 -93.251938 -5.118073 -32.190578 -36.669617 14.501011 35.851002 3.087328 -3.449128 -7.934107 3.089181 -14.089146 8.026228 85.061157 11.392650 -32.812305 20.920584 -16.557571 57.796871 -9.803642 -13.570238 -8.801965 -15.078321 24.013763 16.019987 58.005219 -0.560841 -30.406958 -21.336138 -3.288840 13.903877 -17.176414 -23.063223 -11.809413 53.767014 -4.099699 33.430328 -24.942017 4.399919 -16.379692 
-1.936103 44.383488 2.852200 -5.821025 0.662954 3.310777 0.000000 0.000000 0.000000 12.521046 3.671858 0.176671 -7.001147 -18.696627 32.857216 1.307981 3.439970 21.681698 -3.521967 9.154817 6.304141 -93.170799 -4.727784 -32.353271 -37.534985 14.007803 35.564976 2.761139 -3.603973 -7.889025 3.089181 -14.089146 8.026228 84.961426 11.262722 -32.973080 20.887779 -16.511503 57.698521 -9.826192 -13.403270 -8.801554 -15.018064 23.950159 15.996993 57.983498 -0.503885 -30.845985 -21.401857 -3.293462 13.845842 -17.126446 -23.158474 -11.837276 53.873394 -4.128266 33.405880 -24.961399 4.421654 -16.388762 
-1.970302 44.407738 2.806937 -5.804631 0.594662 3.388894 0.000000 0.000000 0.000000 12.583043 3.769453 0.372217 -7.053967 -18.208328 32.324268 1.594552 3.035477 21.487089 -3.521967 9.154817 6.304141 -93.088173 -4.783311 -32.363651 -37.722446 13.893905 35.402733 2.540920 -3.516521 -7.861556 3.089181 -14.089146 8.026228 84.923843 11.182482 -33.034763 20.918074 -16.551500 57.936562 -9.531323 -13.213254 -8.801325 -15.048980 24.111156 16.145773 57.819847 -0.618381 -30.483732 -21.469364 -3.318049 13.955629 -17.158182 -23.036806 -11.834611 53.844894 -4.119029 33.391663 -24.777445 4.369784 -16.351524 
-2.001417 44.426033 2.766253 -5.748347 0.555667 3.388891 0.000000 0.000000 0.000000 12.632554 3.857264 0.519033 -7.206224 -17.941872 31.859818 2.019843 2.768384 21.188107 -3.521967 9.154817 6.304141 -92.995537 -4.885409 -32.431850 -37.657867 13.903090 35.285740 2.506892 -3.560963 -7.850790 3.089181 -14.089146 8.026228 84.912941 11.199968 -32.999496 20.952639 -16.608332 57.949219 -9.400546 -13.077314 -8.807077 -15.105266 24.211475 16.290056 57.689274 -0.670638 -30.247236 -21.475214 -3.317346 13.989655 -17.253826 -22.934896 -11.779619 53.752491 -4.076403 33.343414 -24.665092 4.374023 -16.312927 
-2.027635 44.427776 2.752870 -5.744357 0.643475 3.281482 0.000000 0.000000 0.000000 12.638513 3.740011 0.626854 -7.201462 -17.623234 31.380962 2.320465 2.572780 20.910906 -3.521967 9.154817 6.304141 -92.822624 -4.615657 -32.668926 -38.021683 13.666838 35.305935 2.429715 -3.650728 -7.838812 3.089181 -14.089146 8.026228 84.992928 11.211107 -32.902378 20.983881 -16.636803 57.700039 -9.494654 -12.944343 -8.804996 -15.097286 24.148525 16.168951 57.686882 -0.631330 -30.724726 -21.288685 -3.270066 13.880605 -17.342873 -22.995880 -11.742686 53.796421 -4.099791 33.430126 -24.682539 4.358329 -16.323366 
-2.043469 44.464432 2.802747 -6.020933 0.799598 3.115612 0.000000 0.000000 0.000000 12.908682 3.603205 0.753535 -7.106516 -17.219408 30.970654 2.536594 2.282486 20.798616 -3.521967 9.154817 6.304141 -92.725288 -4.401128 -32.879604 -38.047512 13.648260 35.077068 2.373859 -3.598965 -7.843524 3.089181 -14.089146 8.026228 85.084953 11.174584 -32.847881 20.996666 -16.649578 57.631420 -9.394122 -12.745175 -8.816953 -14.557852 23.955677 16.223482 57.454533 -0.553542 -30.952515 -21.151121 -3.242731 13.782209 -16.999102 -23.128378 -11.848104 53.700142 -4.120465 33.671291 -24.590094 4.366746 -16.361498 
-2.067202 44.495594 2.841642 -6.300151 0.906960 2.998444 0.000000 0.000000 0.000000 13.204863 3.612928 0.802882 -7.025456 -17.105761 30.774111 2.448006 2.082582 20.727325 -3.521967 9.154817 6.304141 -92.630516 -4.369037 -33.032413 -37.755562 13.792042 34.742676 2.446065 -3.549627 -7.846483 3.089181 -14.089146 8.026228 85.124519 11.242400 -32.814404 21.030947 -16.685865 57.591808 -9.131056 -12.533207 -8.818425 -13.972510 23.830164 16.389166 57.061588 -0.603646 -30.690935 -21.357420 -3.282635 13.885689 -16.679207 -23.241089 -12.033400 53.665810 -4.124669 33.897945 -24.514273 4.352010 -16.335781 
-2.135010 44.522644 2.819861 -6.365282 0.848621 2.764092 0.000000 0.000000 0.000000 13.436413 3.729674 1.184220 -7.159150 -16.516041 30.359293 2.724271 1.498213 20.700769 -3.521967 9.154817 6.304141 -92.466537 -4.576023 -33.060783 -37.334492 14.009148 34.491718 2.521119 -3.440084 -7.867322 3.089181 -14.089146 8.026228 85.261726 11.368564 -32.702526 21.129713 -16.829327 57.349403 -8.866593 -12.162305 -8.832672 -13.758220 23.929443 16.525017 56.803764 -0.648976 -30.051344 -21.183249 -3.275459 13.863460 -16.745659 -23.080473 -11.957311 53.669979 -4.070930 33.877052 -24.409792 4.318194 -16.298748 
-2.266166 44.548882 2.794035 -6.286710 0.751287 2.412414 0.000000 0.000000 0.000000 13.612405 3.963664 1.399894 -7.661491 -16.433369 30.333437 2.964808 1.471941 20.583372 -3.521967 9.154817 6.304141 -92.161819 -4.957006 -33.502510 -36.178196 14.599709 34.254280 2.466786 -3.556628 -7.848027 3.089181 -14.089146 8.026228 85.492165 11.758635 -32.311932 21.222441 -16.867586 56.932358 -8.744802 -11.285823 -8.839832 -13.660189 24.182013 16.703726 56.518734 -0.708553 -29.779690 -20.785772 -3.196352 13.780271 -17.049936 -22.732512 -11.757566 53.723312 -4.105860 33.233650 -24.220627 4.257672 -16.220484 
-2.457664 44.604519 2.794726 -6.307522 0.770887 2.256181 0.000000 0.000000 0.000000 13.778765 4.227614 1.184904 -7.950717 -17.060347 30.579891 2.807610 2.124934 20.307732 -3.521967 9.154817 6.304141 -91.792786 -6.059501 -33.745960 -33.193317 16.519964 33.298775 2.398892 -3.417852 -7.848644 3.089181 -14.089146 8.026228 86.039070 12.155317 -31.350574 21.984608 -16.503241 57.516544 -8.521498 -12.808480 -8.825178 -13.407090 24.311108 16.727543 56.056553 -0.689231 -29.891291 -20.114113 -3.061014 13.568464 -17.128096 -22.410187 -11.577852 53.835041 -4.148416 32.129131 -24.077152 4.236388 -16.186071 
-2.713751 44.693947 2.838805 -6.416589 0.956257 2.305018 0.000000 0.000000 0.000000 14.030958 4.286255 1.145951 -8.109065 -16.759434 30.246017 3.017619 2.054240 20.111486 -3.521967 9.154817 6.304141 -91.551994 -6.761185 -34.109776 -31.141981 17.790802 31.463339 2.465386 -3.171216 -7.873746 3.089181 -14.089146 8.026228 86.921089 12.206024 -30.452084 22.908508 -16.160810 58.159702 -8.613383 -14.733686 -8.801208 -13.153902 24.197565 16.478401 55.395592 -0.464516 -29.923355 -19.019152 -2.826431 13.125516 -16.901047 -22.112333 -11.573444 53.952660 -4.217126 30.404778 -23.926502 4.217414 -16.127535 
-3.166183 44.687550 2.817174 -5.879105 0.653650 2.548996 0.000000 0.000000 0.000000 13.596220 4.842717 1.186490 -8.841337 -16.048073 29.856741 3.481337 1.817844 19.932487 -3.521967 9.154817 6.304141 -91.914917 -4.548214 -35.662113 -34.786140 15.601552 27.098743 1.911990 -2.972830 -7.786817 3.089181 -14.089146 8.026228 87.887260 11.112556 -29.959242 25.763992 -14.517683 57.945633 -9.076669 -14.461643 -8.791398 -13.642029 24.694220 15.934884 54.590862 -0.161993 -29.385263 -19.684547 -2.942898 13.305324 -17.622963 -21.203638 -11.616513 54.880459 -4.080693 27.716167 -24.149328 4.202418 -16.062096 
-3.850454 44.678585 2.710132 -5.159575 0.107229 3.437512 0.000000 0.000000 0.000000 12.885592 5.907961 0.520860 -9.969979 -15.329696 29.606623 3.901777 2.004162 19.719749 -3.521967 9.154817 6.304141 -93.697304 0.435137 -38.776051 -44.481789 10.480349 18.592106 -3.146121 -1.488803 -7.310922 3.089181 -14.089146 8.026228 89.029503 8.478375 -28.789524 32.218430 -10.640345 57.544376 -9.307436 -15.189164 -8.765328 -15.174802 25.260347 14.395042 53.925076 0.733451 -28.700676 -19.350588 -2.858493 13.080205 -18.463194 -19.886702 -12.254966 56.276970 -3.670693 24.176767 -24.709667 4.275443 -15.990247 
